<svg width="180" height="64" xmlns="http://www.w3.org/2000/svg"><g fill-rule="nonzero" fill="none"><g fill="#FFF"><path d="M62.108 45.107c-.057-1.284-.264-2.167-.562-2.932a5.9 5.9 0 00-1.398-2.144 5.95 5.95 0 00-2.139-1.393c-.77-.298-1.648-.506-2.933-.562-1.294-.062-1.704-.076-4.986-.076-3.283 0-3.694.014-4.983.07-1.284.057-2.167.265-2.932.563-.813.307-1.54.779-2.144 1.398a5.952 5.952 0 00-1.393 2.139c-.298.77-.506 1.648-.562 2.932-.062 1.295-.076 1.705-.076 4.987s.014 3.693.07 4.983c.057 1.284.265 2.167.563 2.932.307.813.784 1.54 1.398 2.144a5.95 5.95 0 002.139 1.393c.77.298 1.648.506 2.933.562 1.289.057 1.7.071 4.982.071s3.693-.014 4.982-.07c1.285-.057 2.167-.265 2.932-.563a6.184 6.184 0 003.538-3.537c.297-.77.505-1.648.562-2.932.056-1.29.07-1.7.07-4.983 0-3.282-.004-3.692-.06-4.982zm-2.177 9.87c-.052 1.18-.25 1.818-.415 2.243a4.01 4.01 0 01-2.296 2.295c-.425.166-1.067.364-2.243.416-1.275.057-1.657.07-4.883.07-3.225 0-3.612-.013-4.883-.07-1.18-.052-1.818-.25-2.243-.416a3.72 3.72 0 01-1.388-.902 3.759 3.759 0 01-.902-1.388c-.166-.425-.364-1.067-.416-2.243-.057-1.275-.07-1.658-.07-4.883 0-3.226.013-3.613.07-4.883.052-1.18.25-1.818.416-2.243.193-.525.5-1.001.906-1.389a3.753 3.753 0 011.389-.902c.425-.165 1.067-.363 2.243-.415 1.275-.057 1.658-.071 4.883-.071 3.23 0 3.613.014 4.883.07 1.18.053 1.818.251 2.243.416.524.194 1.001.5 1.389.902.4.392.708.864.902 1.389.165.425.363 1.067.415 2.243.057 1.275.071 1.657.071 4.883 0 3.225-.014 3.603-.07 4.878z"/><path d="M50.09 43.88a6.212 6.212 0 00-6.21 6.21 6.212 6.212 0 006.21 6.21 6.211 6.211 0 006.21-6.21 6.211 6.211 0 00-6.21-6.21zm0 10.24a4.029 4.029 0 110-8.059 4.029 4.029 0 010 8.058zM57.995 43.635a1.45 1.45 0 11-2.9 0 1.45 1.45 0 012.9 0zM21.194 38H3.028A3.03 3.03 0 000 41.028v18.166a3.03 3.03 0 003.028 3.027h9.083v-8.326H9.083v-3.784h3.028v-3.028a4.541 4.541 0 014.541-4.541h3.028v3.784h-1.514c-.835 0-1.514-.079-1.514.757v3.028h3.785l-1.514 3.784h-2.27v8.326h4.54a3.03 3.03 0 003.028-3.027V41.028A3.03 3.03 0 0021.194 38zM98.745 38H77.768C76.79 38 76 38.78 76 39.742v20.674c0 .962.791 1.742 1.768 1.742h20.977c.977 0 1.768-.78 1.768-1.742V39.742c0-.962-.791-1.742-1.768-1.742zm-4.892 9.418c.005.119.008.238.008.358 0 3.664-2.83 7.888-8.005 7.889a8.049 8.049 0 01-4.312-1.246c.22.026.445.038.671.038a5.697 5.697 0 003.495-1.186 2.811 2.811 0 01-2.629-1.926 2.844 2.844 0 001.271-.048c-1.287-.254-2.257-1.375-2.257-2.717v-.036c.38.208.813.333 1.275.347a2.76 2.76 0 01-1.252-2.308c0-.508.139-.984.38-1.393a8.027 8.027 0 005.8 2.897 2.735 2.735 0 01-.074-.633c0-1.53 1.26-2.772 2.814-2.772.809 0 1.54.337 2.053.876a5.693 5.693 0 001.787-.673 2.79 2.79 0 01-1.237 1.534 5.675 5.675 0 001.615-.437 5.672 5.672 0 01-1.403 1.436zM136.714 38h-19.301A2.42 2.42 0 00115 40.413v19.301a2.42 2.42 0 002.413 2.413h19.301a2.42 2.42 0 002.413-2.413V40.413A2.42 2.42 0 00136.714 38zm-14.476 20.508h-3.619V47.65h3.619v10.857zM120.429 45.6a2.162 2.162 0 01-2.172-2.171c0-1.207.965-2.172 2.172-2.172 1.206 0 2.171.965 2.171 2.172a2.162 2.162 0 01-2.171 2.171zm15.079 12.908h-3.619v-6.394c0-.965-.845-1.81-1.81-1.81-.965 0-1.809.845-1.809 1.81v6.394h-3.619V47.65h3.619v1.447c.603-.965 1.93-1.688 3.016-1.688 2.292 0 4.222 1.93 4.222 4.222v6.876zM166.686 51.432l-3.192 9.276a10.623 10.623 0 006.539-.17.963.963 0 01-.075-.146l-3.272-8.96zM155.86 50.5a10.64 10.64 0 005.997 9.576l-5.076-13.906a10.605 10.605 0 00-.921 4.33z"/><path d="M173.682 49.962c0-1.315-.472-2.225-.876-2.935-.54-.876-1.045-1.618-1.045-2.495 0-.978.741-1.888 1.786-1.888.048 0 .092.006.138.008a10.599 10.599 0 00-7.184-2.793 10.627 10.627 0 00-8.891 4.797c.25.007.485.012.685.012 1.113 0 2.836-.135 2.836-.135.574-.034.641.808.068.876 0 0-.576.068-1.217.102l3.874 11.525 2.328-6.984-1.658-4.541c-.573-.034-1.116-.102-1.116-.102-.573-.034-.506-.91.067-.876 0 0 1.758.135 2.803.135 1.113 0 2.836-.135 2.836-.135.574-.034.641.808.068.876 0 0-.577.068-1.218.101l3.846 11.438 1.061-3.546c.46-1.472.809-2.53.809-3.44zM175.836 45.395c.046.338.072.703.072 1.094 0 1.08-.201 2.293-.809 3.81l-3.25 9.397a10.636 10.636 0 005.291-9.196c0-1.85-.473-3.59-1.304-5.105z"/><path d="M166.5 37c-7.456 0-13.5 6.044-13.5 13.5S159.044 64 166.5 64c7.455 0 13.499-6.044 13.499-13.5S173.955 37 166.5 37zm0 25.334c-6.526 0-11.834-5.308-11.834-11.835 0-6.525 5.308-11.833 11.834-11.833 6.525 0 11.833 5.308 11.833 11.833.001 6.526-5.308 11.835-11.833 11.835z"/></g><g fill="#3675A6"><path d="M62.108 8.107c-.057-1.284-.264-2.167-.562-2.932a5.9 5.9 0 00-1.398-2.144 5.95 5.95 0 00-2.139-1.393c-.77-.298-1.648-.506-2.933-.562C53.782 1.014 53.372 1 50.09 1c-3.283 0-3.694.014-4.983.07-1.284.057-2.167.265-2.932.563-.813.307-1.54.779-2.144 1.398a5.952 5.952 0 00-1.393 2.139c-.298.77-.506 1.648-.562 2.932C38.014 9.397 38 9.807 38 13.09c0 3.283.014 3.693.07 4.983.057 1.284.265 2.167.563 2.932.307.813.784 1.54 1.398 2.144a5.95 5.95 0 002.139 1.393c.77.298 1.648.506 2.933.562 1.289.057 1.7.071 4.982.071s3.693-.014 4.982-.07c1.285-.057 2.167-.265 2.932-.563a6.184 6.184 0 003.538-3.537c.297-.77.505-1.648.562-2.932.056-1.29.07-1.7.07-4.983 0-3.282-.004-3.692-.06-4.982zm-2.177 9.87c-.052 1.18-.25 1.818-.415 2.243a4.01 4.01 0 01-2.296 2.296c-.425.165-1.067.363-2.243.415-1.275.057-1.657.07-4.883.07-3.225 0-3.612-.013-4.883-.07-1.18-.052-1.818-.25-2.243-.416a3.72 3.72 0 01-1.388-.902 3.759 3.759 0 01-.902-1.388c-.166-.425-.364-1.067-.416-2.243-.057-1.275-.07-1.658-.07-4.883 0-3.226.013-3.613.07-4.883.052-1.18.25-1.818.416-2.243.193-.524.5-1.001.906-1.389a3.753 3.753 0 011.389-.902c.425-.165 1.067-.363 2.243-.415 1.275-.057 1.658-.071 4.883-.071 3.23 0 3.613.014 4.883.07 1.18.053 1.818.251 2.243.416.524.194 1.001.5 1.389.902.4.392.708.865.902 1.389.165.425.363 1.067.415 2.243.057 1.275.071 1.657.071 4.883 0 3.225-.014 3.603-.07 4.878z"/><path d="M50.09 6.88a6.212 6.212 0 00-6.21 6.21 6.212 6.212 0 006.21 6.21 6.211 6.211 0 006.21-6.21 6.211 6.211 0 00-6.21-6.21zm0 10.24a4.029 4.029 0 110-8.059 4.029 4.029 0 010 8.058zM57.995 6.635a1.45 1.45 0 11-2.9 0 1.45 1.45 0 012.9 0zM21.194 1H3.028A3.03 3.03 0 000 4.028v18.166a3.03 3.03 0 003.028 3.027h9.083v-8.326H9.083v-3.784h3.028v-3.028a4.541 4.541 0 014.541-4.541h3.028v3.784h-1.514c-.835 0-1.514-.079-1.514.757v3.028h3.785l-1.514 3.784h-2.27v8.326h4.54a3.03 3.03 0 003.028-3.027V4.028A3.03 3.03 0 0021.194 1zM98.745 1H77.768C76.79 1 76 1.78 76 2.742v20.674c0 .962.791 1.742 1.768 1.742h20.977c.977 0 1.768-.78 1.768-1.742V2.742c0-.962-.791-1.742-1.768-1.742zm-4.892 9.418c.005.119.008.238.008.358 0 3.664-2.83 7.888-8.005 7.889a8.049 8.049 0 01-4.312-1.246c.22.026.445.038.671.038a5.697 5.697 0 003.495-1.186 2.811 2.811 0 01-2.629-1.926 2.844 2.844 0 001.271-.048c-1.287-.254-2.257-1.375-2.257-2.717v-.036c.38.208.813.333 1.275.347a2.76 2.76 0 01-1.252-2.308c0-.508.139-.984.38-1.393a8.027 8.027 0 005.8 2.897 2.735 2.735 0 01-.074-.633c0-1.53 1.26-2.772 2.814-2.772.809 0 1.54.337 2.053.876a5.693 5.693 0 001.787-.673A2.79 2.79 0 0193.64 9.42a5.675 5.675 0 001.615-.437 5.672 5.672 0 01-1.403 1.436zM136.714 1h-19.301A2.42 2.42 0 00115 3.413v19.301a2.42 2.42 0 002.413 2.413h19.301a2.42 2.42 0 002.413-2.413V3.413A2.42 2.42 0 00136.714 1zm-14.476 20.508h-3.619V10.65h3.619v10.857zM120.429 8.6a2.162 2.162 0 01-2.172-2.171c0-1.207.965-2.172 2.172-2.172 1.206 0 2.171.965 2.171 2.172a2.162 2.162 0 01-2.171 2.171zm15.079 12.908h-3.619v-6.394c0-.965-.845-1.81-1.81-1.81-.965 0-1.809.845-1.809 1.81v6.394h-3.619V10.65h3.619v1.447c.603-.965 1.93-1.689 3.016-1.689 2.292 0 4.222 1.93 4.222 4.223v6.876zM166.686 14.432l-3.192 9.276a10.623 10.623 0 006.539-.17.963.963 0 01-.075-.146l-3.272-8.96zM155.86 13.5a10.64 10.64 0 005.997 9.576L156.781 9.17a10.605 10.605 0 00-.921 4.33z"/><path d="M173.682 12.962c0-1.315-.472-2.225-.876-2.934-.54-.877-1.045-1.619-1.045-2.496 0-.978.741-1.888 1.786-1.888.048 0 .092.006.138.008a10.599 10.599 0 00-7.184-2.793 10.627 10.627 0 00-8.891 4.797c.25.007.485.012.685.012 1.113 0 2.836-.135 2.836-.135.574-.034.641.808.068.876 0 0-.576.068-1.217.102l3.874 11.525 2.328-6.984-1.658-4.541c-.573-.034-1.116-.102-1.116-.102-.573-.034-.506-.91.067-.876 0 0 1.758.135 2.803.135 1.113 0 2.836-.135 2.836-.135.574-.034.641.808.068.876 0 0-.577.068-1.218.101l3.846 11.438 1.061-3.546c.46-1.472.809-2.53.809-3.44zM175.836 8.395c.046.338.072.703.072 1.094 0 1.08-.201 2.293-.809 3.81l-3.25 9.397a10.636 10.636 0 005.291-9.196c0-1.85-.473-3.59-1.304-5.105z"/><path d="M166.5 0C159.044 0 153 6.044 153 13.5S159.044 27 166.5 27c7.455 0 13.499-6.044 13.499-13.5S173.955 0 166.5 0zm0 25.334c-6.526 0-11.834-5.308-11.834-11.835 0-6.525 5.308-11.833 11.834-11.833 6.525 0 11.833 5.308 11.833 11.833.001 6.526-5.308 11.835-11.833 11.835z"/></g></g></svg>